#!OML:ASF E:\Steps\Project 1\Capture day 1\Session 2\Subject.ASF
:FULLY-SPECIFIED
:DEGREES
983
root 9.20731 25.0136 -20.2027 -152.901 -1.20755 178.813
lowerback -31.8176 -1.59856 -7.13397
upperback -1.92093 -0.336362 -0.753571
thorax 14.3909 -0.950904 2.79658
lowerneck -0.176584 -2.41741 -4.57252
upperneck -1.51443 -3.39228 10.6402
head -0.167461 -1.82726 4.3038
rclavicle 8.94531e-015 -3.97569e-015
rhumerus -37.3211 -18.7589 -77.0275
rradius 30.5221
rwrist 1.1773
rhand -7.73376 -54.2771
rfingers 7.12502
rthumb 18.165 -83.4489
lclavicle 8.94531e-015 -3.97569e-015
lhumerus -30.7737 8.64339 78.2025
lradius 21.7521
lwrist -9.70681
lhand -20.8752 -9.94521
lfingers 7.12502
lthumb 5.49484 19.9635
rfemur -21.7823 8.18542 18.5969
rtibia 5.14726
rfoot -376.589 -5.88235
rtoes -32.3687
lfemur -21.9473 -9.19943 -20.9942
ltibia 8.23848
lfoot 351.321 1.6545
ltoes -40.2502
984
root 9.20798 25.0158 -20.1952 -152.965 -1.08112 178.79
lowerback -31.6039 -1.59344 -7.21318
upperback -1.96621 -0.32428 -0.735557
thorax 14.2434 -0.945223 2.86773
lowerneck -0.280216 -2.47307 -4.6843
upperneck -1.34573 -3.48232 10.7836
head -0.0819118 -1.86795 4.37313
rclavicle -9.93923e-016 -3.81667e-014
rhumerus -37.4465 -19.0128 -76.7662
rradius 30.7257
rwrist 2.08737
rhand -6.06074 -55.8048
rfingers 7.12502
rthumb 19.774 -84.819
lclavicle -9.93923e-016 -3.81667e-014
lhumerus -30.7825 9.25567 77.9703
lradius 21.2318
lwrist -10.4864
lhand -20.6352 -10.0315
lfingers 7.12502
lthumb 5.7266 19.8711
rfemur -21.8024 8.27858 18.5177
rtibia 5.20519
rfoot -376.559 -5.90057
rtoes -32.9785
lfemur -21.9324 -9.28535 -21.0054
ltibia 8.28971
lfoot 351.278 1.8201
ltoes -39.4879
985
root 9.2082 25.0144 -20.1931 -152.899 -1.07278 178.82
lowerback -31.6255 -1.6233 -7.2185
upperback -1.99493 -0.373089 -0.688053
thorax 14.2245 -0.969336 2.90179
lowerneck -0.232665 -2.46913 -4.72702
upperneck -1.32562 -3.48326 10.8691
head -0.0813787 -1.87096 4.41325
rclavicle 5.76476e-015 -3.18055e-015
rhumerus -37.3654 -19.0855 -76.6085
rradius 30.5089
rwrist 2.37598
rhand -5.42111 -56.1767
rfingers 7.12502
rthumb 20.3888 -85.1263
lclavicle 5.76476e-015 -3.18055e-015
lhumerus -30.9315 9.55809 77.8541
lradius 20.9938
lwrist -10.9118
lhand -20.5496 -9.69321
lfingers 7.12502
lthumb 5.80923 20.2072
rfemur -21.8832 8.21678 18.5662
rtibia 5.2543
rfoot -376.563 -5.85194
rtoes -33.2272
lfemur -22.0375 -9.22266 -20.9674
ltibia 8.32581
lfoot 351.243 1.77876
ltoes -39.5256
986
root 9.20738 25.0118 -20.1959 -152.806 -1.07354 178.89
lowerback -31.8145 -1.67669 -7.17529
upperback -2.01352 -0.460888 -0.643834
thorax 14.2939 -1.01318 2.88647
lowerneck -0.0142006 -2.43706 -4.62634
upperneck -1.38298 -3.44472 10.8867
head -0.144056 -1.86124 4.40453
rclavicle 6.95746e-016 -1.74931e-014
rhumerus -37.3536 -19.0809 -76.532
rradius 30.2582
rwrist 2.4591
rhand -5.10138 -56.5142
rfingers 7.12502
rthumb 20.696 -85.4306
lclavicle 6.95746e-016 -1.74931e-014
lhumerus -31.2639 9.50858 77.7824
lradius 20.9825
lwrist -10.7625
lhand -20.5589 -9.55242
lfingers 7.12502
lthumb 5.80018 20.3482
rfemur -21.9735 8.1421 18.6644
rtibia 5.28898
rfoot -376.586 -5.75115
rtoes -32.8653
lfemur -22.1388 -9.09984 -20.9104
ltibia 8.3525
lfoot 351.225 1.72415
ltoes -40.3052
987
root 9.20813 25.0152 -20.193 -152.754 -1.0716 179.015
lowerback -31.9209 -1.68916 -7.08053
upperback -1.95584 -0.500189 -0.575194
thorax 14.414 -1.02759 2.89317
lowerneck -0.153282 -2.44691 -4.60828
upperneck -1.43691 -3.45465 10.9123
head -0.135441 -1.86547 4.40815
rclavicle -5.06901e-015 -4.49253e-014
rhumerus -37.2319 -19.1622 -76.4162
rradius 30.0732
rwrist 2.59044
rhand -4.69359 -56.7845
rfingers 7.12502
rthumb 21.0878 -85.6579
lclavicle -5.06901e-015 -4.49253e-014
lhumerus -31.2917 9.7144 77.7255
lradius 20.7747
lwrist -10.8422
lhand -20.4017 -9.60561
lfingers 7.12502
lthumb 5.95201 20.2908
rfemur -22.0835 8.29625 18.7634
rtibia 5.32331
rfoot -376.581 -5.77634
rtoes -31.9461
lfemur -22.2568 -9.05585 -20.7357
ltibia 8.40727
lfoot 351.232 1.77869
ltoes -40.5137
988
root 9.20725 25.0171 -20.1914 -152.756 -1.07721 179.081
lowerback -31.9686 -1.71891 -6.99014
upperback -1.86633 -0.550938 -0.549939
thorax 14.5465 -1.04429 2.85156
lowerneck -0.369159 -2.37701 -4.61061
upperneck -1.48797 -3.35945 10.9912
head -0.119939 -1.81689 4.43478
rclavicle -1.98785e-016 4.77083e-015
rhumerus -37.0896 -19.1996 -76.3824
rradius 29.7645
rwrist 2.26996
rhand -5.24038 -56.0568
rfingers 7.12502
rthumb 20.5624 -84.9878
lclavicle -1.98785e-016 4.77083e-015
lhumerus -31.2591 10.0897 77.5657
lradius 20.532
lwrist -11.0748
lhand -20.1499 -9.6928
lfingers 7.12502
lthumb 6.19509 20.1966
rfemur -22.0975 8.33461 18.8336
rtibia 5.30239
rfoot -376.565 -5.83383
rtoes -32.9561
lfemur -22.2587 -9.09077 -20.6448
ltibia 8.3588
lfoot 351.252 1.83542
ltoes -40.3468
989
root 9.20719 25.0182 -20.1892 -152.77 -1.08091 179.086
lowerback -31.9161 -1.76112 -7.0014
upperback -1.91611 -0.617705 -0.540427
thorax 14.4718 -1.07467 2.84098
lowerneck -0.160102 -2.32425 -4.54211
upperneck -1.38705 -3.29765 10.9351
head -0.132654 -1.78832 4.40394
rclavicle -4.37326e-015 -2.78299e-014
rhumerus -37.2657 -19.1535 -76.3025
rradius 29.291
rwrist 1.17413
rhand -7.4008 -53.8314
rfingers 7.12502
rthumb 18.4853 -82.9731
lclavicle -4.37326e-015 -2.78299e-014
lhumerus -31.4687 10.3932 77.3361
lradius 20.2366
lwrist -11.4078
lhand -19.9887 -9.82836
lfingers 7.12502
lthumb 6.35073 20.0564
rfemur -22.0904 8.35159 18.8454
rtibia 5.29512
rfoot -376.532 -5.9235
rtoes -33.4605
lfemur -22.2539 -9.10151 -20.6404
ltibia 8.33983
lfoot 351.287 1.86992
ltoes -40.4245
990
root 9.20758 25.019 -20.1858 -152.8 -1.06244 179.072
lowerback -31.8452 -1.77598 -7.04586
upperback -1.90833 -0.624405 -0.522054
thorax 14.4511 -1.07844 2.88397
lowerneck 0.101473 -2.33185 -4.41908
upperneck -1.65729 -3.28615 10.7727
head -0.27275 -1.79274 4.32875
rclavicle 1.59028e-015 1.27222e-014
rhumerus -37.4082 -19.2145 -76.1786
rradius 29.4835
rwrist 1.12112
rhand -7.41742 -53.669
rfingers 7.12502
rthumb 18.4693 -82.8122
lclavicle 1.59028e-015 1.27222e-014
lhumerus -31.5134 10.7099 77.2045
lradius 19.9444
lwrist -11.9677
lhand -19.8585 -9.57862
lfingers 7.12502
lthumb 6.47644 20.3024
rfemur -22.0679 8.37767 18.8291
rtibia 5.31616
rfoot -376.511 -5.91989
rtoes -32.9796
lfemur -22.2363 -9.12896 -20.6635
ltibia 8.36718
lfoot 351.315 1.94649
ltoes -40.9989
991
root 9.20622 25.0196 -20.1829 -152.86 -0.975672 179.022
lowerback -31.7907 -1.79078 -7.1
upperback -1.84556 -0.611459 -0.531997
thorax 14.4995 -1.07331 2.90934
lowerneck 0.0744447 -2.27303 -4.3442
upperneck -1.83658 -3.19603 10.7547
head -0.334922 -1.75296 4.30977
rclavicle -7.55382e-015 1.35174e-014
rhumerus -37.4939 -19.2479 -76.1403
rradius 29.7531
rwrist 1.08579
rhand -7.55813 -53.3243
rfingers 7.12502
rthumb 18.334 -82.4802
lclavicle -7.55382e-015 1.35174e-014
lhumerus -31.511 11.1329 77.044
lradius 19.6681
lwrist -12.56
lhand -19.8828 -9.35601
lfingers 7.12502
lthumb 6.45297 20.5257
rfemur -22.0181 8.36404 18.7544
rtibia 5.29921
rfoot -376.467 -5.81407
rtoes -32.3399
lfemur -22.1373 -9.13516 -20.7607
ltibia 8.32188
lfoot 351.335 2.00553
ltoes -41.5995
992
root 9.20596 25.0195 -20.1808 -152.942 -0.801519 178.847
lowerback -31.7999 -1.83333 -7.31325
upperback -1.72232 -0.559031 -0.576628
thorax 14.6403 -1.06197 2.99697
lowerneck -0.101464 -2.23475 -4.33557
upperneck -1.89319 -3.14221 10.8009
head -0.325572 -1.72548 4.32257
rclavicle -7.45443e-015 2.38542e-015
rhumerus -37.369 -19.3328 -76.1106
rradius 29.6289
rwrist 1.06967
rhand -7.57215 -53.2263
rfingers 7.12502
rthumb 18.3205 -82.3836
lclavicle -7.45443e-015 2.38542e-015
lhumerus -31.4316 11.4321 76.9514
lradius 19.3482
lwrist -12.7791
lhand -20.0404 -9.60983
lfingers 7.12502
lthumb 6.30082 20.2765
rfemur -21.9691 8.38137 18.5028
rtibia 5.30456
rfoot -376.46 -5.7772
rtoes -32.5628
lfemur -22.003 -9.08155 -21.0253
ltibia 8.26362
lfoot 351.301 1.96715
ltoes -40.9344
